<?xml version="1.0" encoding="UTF-8" standalone="no"?>
<svg
   xmlns:dc="http://purl.org/dc/elements/1.1/"
   xmlns:cc="http://creativecommons.org/ns#"
   xmlns:rdf="http://www.w3.org/1999/02/22-rdf-syntax-ns#"
   xmlns:svg="http://www.w3.org/2000/svg"
   xmlns="http://www.w3.org/2000/svg"
   xmlns:sodipodi="http://sodipodi.sourceforge.net/DTD/sodipodi-0.dtd"
   xmlns:inkscape="http://www.inkscape.org/namespaces/inkscape"
   version="1.0"
   x="0px"
   y="0px"
   viewBox="0 0 195 230"
   enable-background="new 0 0 100 94.69"
   xml:space="preserve"
   id="svg2"
   inkscape:version="0.91 r13725"
   sodipodi:docname="teapot.svg"
   width="195"
   height="230"><metadata
     id="metadata14"><rdf:RDF><cc:Work
         rdf:about=""><dc:format>image/svg+xml</dc:format><dc:type
           rdf:resource="http://purl.org/dc/dcmitype/StillImage" /><dc:title></dc:title></cc:Work></rdf:RDF></metadata><defs
     id="defs12" /><sodipodi:namedview
     pagecolor="#ffffff"
     bordercolor="#666666"
     borderopacity="1"
     objecttolerance="10"
     gridtolerance="10"
     guidetolerance="10"
     inkscape:pageopacity="0"
     inkscape:pageshadow="2"
     inkscape:window-width="1920"
     inkscape:window-height="1018"
     id="namedview10"
     showgrid="false"
     inkscape:zoom="2.8197646"
     inkscape:cx="57.572566"
     inkscape:cy="140.61105"
     inkscape:window-x="-8"
     inkscape:window-y="-8"
     inkscape:window-maximized="1"
     inkscape:current-layer="layer3" /><text
     x="0"
     y="221.32751"
     font-size="5px"
     font-weight="bold"
     id="text6"
     style="font-weight:bold;font-size:5px;font-family:'Helvetica Neue', Helvetica, Arial-Unicode, Arial, Sans-serif;fill:#000000">Created by Edward Boatman</text>
<text
     x="0"
     y="226.32751"
     font-size="5px"
     font-weight="bold"
     id="text8"
     style="font-weight:bold;font-size:5px;font-family:'Helvetica Neue', Helvetica, Arial-Unicode, Arial, Sans-serif;fill:#000000">from the Noun Project</text>
<g
     inkscape:groupmode="layer"
     id="layer3"
     inkscape:label="Steam Path"
     transform="translate(0,-270)"><path
       style="fill:#000000;fill-opacity:1;fill-rule:evenodd;stroke:#000000;stroke-width:4;stroke-linecap:butt;stroke-linejoin:miter;stroke-miterlimit:4;stroke-dasharray:none;stroke-opacity:1"
       d="m 95.043393,448.93191 4.610311,3.90103 c 0,0 41.605016,-53.44857 49.649546,-63.48047 11.46186,-14.29348 13.0454,-19.38233 19.50517,-29.78973 6.38352,-10.28454 6.73815,-9.22062 10.99382,-17.0227 4.17702,-7.65786 11.70311,-21.98764 9.22064,-40.4289 -7.62833,-38.49175 -43.46728,-26.68953 -60.64337,-24.11549 -24.99628,0.7661 -24.71687,-4.95451 -61.352639,1.06392 -39.666269,4.71983 -48.498096,10.55393 -56.033046,25.88869 -7.1427353,11.56444 -5.3195923,19.85981 -3.1917557,33.69075 2.127837,13.83094 17.0674157,36.29493 43.2660227,36.17323 43.383121,-0.20152 53.008538,5.84144 59.579448,14.54022 3.92988,5.2025 5.31959,18.08662 0.35464,28.01653 -4.96495,9.92991 -15.958787,31.56292 -15.958787,31.56292 z"
       id="path3412"
       inkscape:connector-curvature="0"
       sodipodi:nodetypes="ccsssccccssssc" /></g><path
     d="m 101.1022,182.20442 -6.096007,-4.407 c -0.244,-0.177 -0.56,-0.274 -0.887,-0.274 -0.41,0 -0.802,0.15 -1.073,0.412 l -0.221,0.212 0,0 -0.005,0.005 -7.696,7.405 c -0.419,-0.432 -0.854,-0.848 -1.302,-1.249 l 0,-10.999 c 0,-10.374 -3.798996,-20.136 -10.695996,-27.489 -6.948,-7.407 -16.202,-11.486 -26.055,-11.486 -9.854,0 -19.108,4.079 -26.056,11.486 -6.897,7.353 -10.696,17.116 -10.696,27.489 l 0,10.997 c -5.2439993,4.691 -8.5459993,11.508 -8.5459993,19.099 0,14.149 11.4699993,25.619 25.6189993,25.619 l 39.357,0 c 11.498,0 21.226996,-7.575 24.468996,-18.007 l 0,0 10.457007,-26.878 c 0.253,-0.656 -0.004,-1.524 -0.573,-1.935 z m -23.406003,-1.965 c -3.319,-1.572 -7.029,-2.453 -10.946,-2.453 l -1.985,0 c 1.916,0 3.469,-1.553 3.469,-3.469 0,-1.916 -1.553,-3.469 -3.469,-3.469 l -12.197,0 c 1.641,-0.919 2.69,-2.324 2.69,-3.898 0,-2.768 -3.241,-5.012 -7.24,-5.012 -3.999,0 -7.24,2.244 -7.24,5.012 0,1.575 1.05,2.979 2.691,3.898 l -14.092,0 c -1.916,0 -3.469,1.553 -3.469,3.469 0,1.916 1.553,3.469 3.469,3.469 l -1.984,0 c -3.917,0 -7.627,0.88 -10.947,2.452 l 0,-6.928 c 0,-18.113 13.738,-32.849 30.625,-32.849 16.887,0 30.625,14.736 30.625,32.849 l 0,6.929 z"
     id="path4"
     inkscape:connector-curvature="0" /></svg>