<?xml version="1.0" encoding="UTF-8" standalone="no"?>
<svg
   xmlns:dc="http://purl.org/dc/elements/1.1/"
   xmlns:cc="http://creativecommons.org/ns#"
   xmlns:rdf="http://www.w3.org/1999/02/22-rdf-syntax-ns#"
   xmlns:svg="http://www.w3.org/2000/svg"
   xmlns="http://www.w3.org/2000/svg"
   xmlns:sodipodi="http://sodipodi.sourceforge.net/DTD/sodipodi-0.dtd"
   xmlns:inkscape="http://www.inkscape.org/namespaces/inkscape"
   version="1.0"
   x="0px"
   y="0px"
   viewBox="0 0 100 118.3625"
   enable-background="new 0 0 100 94.69"
   xml:space="preserve"
   id="svg2"
   inkscape:version="0.91 r13725"
   sodipodi:docname="teapot.svg"><metadata
     id="metadata14"><rdf:RDF><cc:Work
         rdf:about=""><dc:format>image/svg+xml</dc:format><dc:type
           rdf:resource="http://purl.org/dc/dcmitype/StillImage" /><dc:title></dc:title></cc:Work></rdf:RDF></metadata><defs
     id="defs12" /><sodipodi:namedview
     pagecolor="#ffffff"
     bordercolor="#666666"
     borderopacity="1"
     objecttolerance="10"
     gridtolerance="10"
     guidetolerance="10"
     inkscape:pageopacity="0"
     inkscape:pageshadow="2"
     inkscape:window-width="1920"
     inkscape:window-height="1018"
     id="namedview10"
     showgrid="false"
     inkscape:zoom="2.8197646"
     inkscape:cx="57.572566"
     inkscape:cy="140.61105"
     inkscape:window-x="-8"
     inkscape:window-y="-8"
     inkscape:window-maximized="1"
     inkscape:current-layer="svg2" /><path
     d="M99.329,47.87l-6.096-4.407c-0.244-0.177-0.56-0.274-0.887-0.274c-0.41,0-0.802,0.15-1.073,0.412l-0.221,0.212l0,0  l-0.005,0.005l-7.696,7.405c-0.419-0.432-0.854-0.848-1.302-1.249V38.975c0-10.374-3.799-20.136-10.696-27.489  C64.405,4.079,55.151,0,45.298,0C35.444,0,26.19,4.079,19.242,11.486C12.345,18.839,8.546,28.602,8.546,38.975v10.997  C3.302,54.663,0,61.48,0,69.071C0,83.22,11.47,94.69,25.619,94.69h39.357c11.498,0,21.227-7.575,24.469-18.007l0,0l10.457-26.878  C100.155,49.149,99.898,48.281,99.329,47.87z M75.923,45.905c-3.319-1.572-7.029-2.453-10.946-2.453h-1.985  c1.916,0,3.469-1.553,3.469-3.469c0-1.916-1.553-3.469-3.469-3.469H50.795c1.641-0.919,2.69-2.324,2.69-3.898  c0-2.768-3.241-5.012-7.24-5.012s-7.24,2.244-7.24,5.012c0,1.575,1.05,2.979,2.691,3.898H27.604c-1.916,0-3.469,1.553-3.469,3.469  c0,1.916,1.553,3.469,3.469,3.469h-1.984c-3.917,0-7.627,0.88-10.947,2.452v-6.928c0-18.113,13.738-32.849,30.625-32.849  c16.887,0,30.625,14.736,30.625,32.849V45.905z"
     id="path4" /><text
     x="0"
     y="109.69"
     font-size="5px"
     font-weight="bold"
     id="text6"
     font-family="'Helvetica Neue', Helvetica, Arial-Unicode, Arial, Sans-serif"
     fill="#000000">Created by Edward Boatman</text>
<text
     x="0"
     y="114.69"
     font-size="5px"
     font-weight="bold"
     id="text8"
     font-family="'Helvetica Neue', Helvetica, Arial-Unicode, Arial, Sans-serif"
     fill="#000000">from the Noun Project</text>
</svg>